<svg width="470" height="470" viewBox="0 0 470 470" fill="none" xmlns="http://www.w3.org/2000/svg">
<path fill-rule="evenodd" clip-rule="evenodd" d="M353 234.5C353 260.047 344.847 283.69 331 302.969C327.558 301.145 324.253 299.237 321.095 297.253C292.193 279.098 278 256.422 278 234.5C278 212.578 292.193 189.902 321.095 171.747C324.253 169.763 327.558 167.855 331 166.031C344.847 185.31 353 208.953 353 234.5ZM259 234.5C259 267.599 281.959 297.33 318.419 317.75C297.169 338.917 267.863 352 235.5 352C170.607 352 118 299.393 118 234.5C118 169.607 170.607 117 235.5 117C267.863 117 297.169 130.083 318.419 151.25C281.959 171.67 259 201.401 259 234.5ZM318 251C326.837 251 334 243.837 334 235C334 226.163 326.837 219 318 219C309.163 219 302 226.163 302 235C302 243.837 309.163 251 318 251Z" fill="#0071ED"/>
<path fill-rule="evenodd" clip-rule="evenodd" d="M342.183 328.974C316.077 358.432 277.957 377 235.5 377C156.799 377 93 313.201 93 234.5C93 155.799 156.799 92 235.5 92C277.957 92 316.077 110.568 342.183 140.026C350.602 136.703 359.496 133.811 368.787 131.4C337.966 91.6129 289.724 66 235.5 66C142.44 66 67 141.44 67 234.5C67 327.56 142.44 403 235.5 403C289.724 403 337.966 377.387 368.787 337.6C359.496 335.189 350.602 332.297 342.183 328.974ZM354.287 155.758C369.271 178.316 378 205.389 378 234.5C378 263.611 369.271 290.684 354.287 313.242C362.461 316.21 371.136 318.762 380.232 320.833C395.326 295.584 404 266.055 404 234.5C404 202.945 395.326 173.416 380.232 148.167C371.136 150.238 362.461 152.79 354.287 155.758Z" fill="#0071ED"/>
</svg>
